<mxfile host="Electron" agent="Mozilla/5.0 (Windows NT 10.0; Win64; x64) AppleWebKit/537.36 (KHTML, like Gecko) draw.io/26.2.2 Chrome/134.0.6998.178 Electron/35.1.2 Safari/537.36" version="26.2.2">
  <diagram name="Page-1" id="4UJooiOb0DZuprkRTjQO">
    <mxGraphModel dx="1989" dy="571" grid="1" gridSize="10" guides="1" tooltips="1" connect="1" arrows="1" fold="1" page="1" pageScale="1" pageWidth="850" pageHeight="1100" math="0" shadow="0">
      <root>
        <mxCell id="0" />
        <mxCell id="1" parent="0" />
        <mxCell id="lm7kt7B4Gzffc_qZvz0Z-1" value="Controller" style="shape=umlLifeline;perimeter=lifelinePerimeter;whiteSpace=wrap;html=1;container=1;dropTarget=0;collapsible=0;recursiveResize=0;outlineConnect=0;portConstraint=eastwest;newEdgeStyle={&quot;curved&quot;:0,&quot;rounded&quot;:0};" vertex="1" parent="1">
          <mxGeometry x="-150" y="190" width="100" height="680" as="geometry" />
        </mxCell>
        <mxCell id="lm7kt7B4Gzffc_qZvz0Z-2" value="" style="html=1;points=[[0,0,0,0,5],[0,1,0,0,-5],[1,0,0,0,5],[1,1,0,0,-5]];perimeter=orthogonalPerimeter;outlineConnect=0;targetShapes=umlLifeline;portConstraint=eastwest;newEdgeStyle={&quot;curved&quot;:0,&quot;rounded&quot;:0};" vertex="1" parent="lm7kt7B4Gzffc_qZvz0Z-1">
          <mxGeometry x="45" y="80" width="10" height="390" as="geometry" />
        </mxCell>
        <mxCell id="lm7kt7B4Gzffc_qZvz0Z-3" style="edgeStyle=orthogonalEdgeStyle;rounded=0;orthogonalLoop=1;jettySize=auto;html=1;dashed=1;endArrow=none;startFill=0;" edge="1" parent="1" source="lm7kt7B4Gzffc_qZvz0Z-4">
          <mxGeometry relative="1" as="geometry">
            <mxPoint x="-290" y="870" as="targetPoint" />
            <Array as="points">
              <mxPoint x="-290" y="880" />
              <mxPoint x="-290" y="880" />
            </Array>
          </mxGeometry>
        </mxCell>
        <mxCell id="lm7kt7B4Gzffc_qZvz0Z-4" value="Actor" style="shape=umlActor;verticalLabelPosition=bottom;verticalAlign=top;html=1;" vertex="1" parent="1">
          <mxGeometry x="-300" y="160" width="30" height="60" as="geometry" />
        </mxCell>
        <mxCell id="lm7kt7B4Gzffc_qZvz0Z-5" value="Service" style="shape=umlLifeline;perimeter=lifelinePerimeter;whiteSpace=wrap;html=1;container=1;dropTarget=0;collapsible=0;recursiveResize=0;outlineConnect=0;portConstraint=eastwest;newEdgeStyle={&quot;curved&quot;:0,&quot;rounded&quot;:0};" vertex="1" parent="1">
          <mxGeometry x="70" y="190" width="100" height="680" as="geometry" />
        </mxCell>
        <mxCell id="lm7kt7B4Gzffc_qZvz0Z-6" value="" style="html=1;points=[[0,0,0,0,5],[0,1,0,0,-5],[1,0,0,0,5],[1,1,0,0,-5]];perimeter=orthogonalPerimeter;outlineConnect=0;targetShapes=umlLifeline;portConstraint=eastwest;newEdgeStyle={&quot;curved&quot;:0,&quot;rounded&quot;:0};" vertex="1" parent="lm7kt7B4Gzffc_qZvz0Z-5">
          <mxGeometry x="45" y="100" width="10" height="360" as="geometry" />
        </mxCell>
        <mxCell id="lm7kt7B4Gzffc_qZvz0Z-7" value="Database" style="shape=umlLifeline;perimeter=lifelinePerimeter;whiteSpace=wrap;html=1;container=1;dropTarget=0;collapsible=0;recursiveResize=0;outlineConnect=0;portConstraint=eastwest;newEdgeStyle={&quot;curved&quot;:0,&quot;rounded&quot;:0};" vertex="1" parent="1">
          <mxGeometry x="290" y="190" width="100" height="680" as="geometry" />
        </mxCell>
        <mxCell id="lm7kt7B4Gzffc_qZvz0Z-8" value="" style="html=1;points=[[0,0,0,0,5],[0,1,0,0,-5],[1,0,0,0,5],[1,1,0,0,-5]];perimeter=orthogonalPerimeter;outlineConnect=0;targetShapes=umlLifeline;portConstraint=eastwest;newEdgeStyle={&quot;curved&quot;:0,&quot;rounded&quot;:0};" vertex="1" parent="lm7kt7B4Gzffc_qZvz0Z-7">
          <mxGeometry x="45" y="120" width="10" height="330" as="geometry" />
        </mxCell>
        <mxCell id="lm7kt7B4Gzffc_qZvz0Z-9" value="Chọn chức năng thống kê doanh thu" style="html=1;verticalAlign=bottom;endArrow=block;curved=0;rounded=0;" edge="1" parent="1">
          <mxGeometry width="80" relative="1" as="geometry">
            <mxPoint x="-290" y="270" as="sourcePoint" />
            <mxPoint x="-100.49999999999989" y="270" as="targetPoint" />
            <Array as="points">
              <mxPoint x="-220" y="270" />
            </Array>
          </mxGeometry>
        </mxCell>
        <mxCell id="lm7kt7B4Gzffc_qZvz0Z-10" value="Kiểm tra có đang trong phiên đăng nhập" style="html=1;verticalAlign=bottom;endArrow=block;curved=0;rounded=0;" edge="1" parent="1" source="lm7kt7B4Gzffc_qZvz0Z-2" target="lm7kt7B4Gzffc_qZvz0Z-5">
          <mxGeometry width="80" relative="1" as="geometry">
            <mxPoint x="-80" y="290" as="sourcePoint" />
            <mxPoint x="89.50000000000011" y="290" as="targetPoint" />
            <Array as="points">
              <mxPoint x="-30" y="290" />
            </Array>
          </mxGeometry>
        </mxCell>
        <mxCell id="lm7kt7B4Gzffc_qZvz0Z-11" value="Kiểm tra" style="html=1;verticalAlign=bottom;endArrow=block;curved=0;rounded=0;" edge="1" parent="1" source="lm7kt7B4Gzffc_qZvz0Z-6">
          <mxGeometry width="80" relative="1" as="geometry">
            <mxPoint x="130" y="310" as="sourcePoint" />
            <mxPoint x="340" y="310" as="targetPoint" />
            <Array as="points">
              <mxPoint x="190" y="310" />
            </Array>
          </mxGeometry>
        </mxCell>
        <mxCell id="lm7kt7B4Gzffc_qZvz0Z-12" value="Người dùng không trong phiên đăng nhập" style="html=1;verticalAlign=bottom;endArrow=open;dashed=1;endSize=8;curved=0;rounded=0;" edge="1" parent="1">
          <mxGeometry relative="1" as="geometry">
            <mxPoint x="339.5" y="350" as="sourcePoint" />
            <mxPoint x="120" y="350" as="targetPoint" />
          </mxGeometry>
        </mxCell>
        <mxCell id="lm7kt7B4Gzffc_qZvz0Z-13" value="Người dùng không trong phiên đăng nhập" style="html=1;verticalAlign=bottom;endArrow=open;dashed=1;endSize=8;curved=0;rounded=0;" edge="1" parent="1">
          <mxGeometry relative="1" as="geometry">
            <mxPoint x="119.5" y="370" as="sourcePoint" />
            <mxPoint x="-100" y="370" as="targetPoint" />
          </mxGeometry>
        </mxCell>
        <mxCell id="lm7kt7B4Gzffc_qZvz0Z-14" value="Người dùng không trong phiên&lt;div&gt;đăng nhập&lt;/div&gt;" style="html=1;verticalAlign=bottom;endArrow=open;dashed=1;endSize=8;curved=0;rounded=0;" edge="1" parent="1">
          <mxGeometry x="-0.0001" relative="1" as="geometry">
            <mxPoint x="-100.5" y="390" as="sourcePoint" />
            <mxPoint x="-290" y="390" as="targetPoint" />
            <mxPoint as="offset" />
          </mxGeometry>
        </mxCell>
        <mxCell id="lm7kt7B4Gzffc_qZvz0Z-15" value="Alternative" style="shape=umlFrame;whiteSpace=wrap;html=1;pointerEvents=0;" vertex="1" parent="1">
          <mxGeometry x="-530" y="330" width="940" height="450" as="geometry" />
        </mxCell>
        <mxCell id="lm7kt7B4Gzffc_qZvz0Z-16" value="[return to login page]" style="text;html=1;align=center;verticalAlign=middle;resizable=0;points=[];autosize=1;strokeColor=none;fillColor=none;rotation=0;" vertex="1" parent="1">
          <mxGeometry x="-480" y="370" width="130" height="30" as="geometry" />
        </mxCell>
        <mxCell id="lm7kt7B4Gzffc_qZvz0Z-17" value="" style="line;strokeWidth=1;fillColor=none;align=left;verticalAlign=middle;spacingTop=-1;spacingLeft=3;spacingRight=3;rotatable=0;labelPosition=right;points=[];portConstraint=eastwest;strokeColor=inherit;dashed=1;" vertex="1" parent="1">
          <mxGeometry x="-530" y="426" width="935" height="8" as="geometry" />
        </mxCell>
        <mxCell id="lm7kt7B4Gzffc_qZvz0Z-18" value="Người dùng có trong phiên đăng nhập" style="html=1;verticalAlign=bottom;endArrow=open;dashed=1;endSize=8;curved=0;rounded=0;" edge="1" parent="1" source="lm7kt7B4Gzffc_qZvz0Z-7">
          <mxGeometry relative="1" as="geometry">
            <mxPoint x="200" y="410" as="sourcePoint" />
            <mxPoint x="120" y="410" as="targetPoint" />
          </mxGeometry>
        </mxCell>
        <mxCell id="lm7kt7B4Gzffc_qZvz0Z-19" value="Alternative" style="shape=umlFrame;whiteSpace=wrap;html=1;pointerEvents=0;" vertex="1" parent="1">
          <mxGeometry x="-470" y="449" width="840" height="291" as="geometry" />
        </mxCell>
        <mxCell id="lm7kt7B4Gzffc_qZvz0Z-20" value="Chọn khoảng thời gian cần thống kê" style="html=1;verticalAlign=bottom;endArrow=block;curved=0;rounded=0;" edge="1" parent="1">
          <mxGeometry x="0.0026" width="80" relative="1" as="geometry">
            <mxPoint x="-290" y="490" as="sourcePoint" />
            <mxPoint x="-100.5" y="490" as="targetPoint" />
            <Array as="points">
              <mxPoint x="-210" y="490" />
            </Array>
            <mxPoint as="offset" />
          </mxGeometry>
        </mxCell>
        <mxCell id="lm7kt7B4Gzffc_qZvz0Z-21" value="Kiểm tra ngày tháng hợp lệ" style="html=1;verticalAlign=bottom;endArrow=block;curved=0;rounded=0;entryX=0.5;entryY=0.493;entryDx=0;entryDy=0;entryPerimeter=0;" edge="1" parent="1">
          <mxGeometry width="80" relative="1" as="geometry">
            <mxPoint x="-95" y="510" as="sourcePoint" />
            <mxPoint x="120" y="510.1700000000001" as="targetPoint" />
            <Array as="points">
              <mxPoint x="-50" y="510" />
            </Array>
          </mxGeometry>
        </mxCell>
        <mxCell id="lm7kt7B4Gzffc_qZvz0Z-22" value="Kiểm tra" style="html=1;verticalAlign=bottom;endArrow=block;curved=0;rounded=0;" edge="1" parent="1">
          <mxGeometry width="80" relative="1" as="geometry">
            <mxPoint x="120" y="530" as="sourcePoint" />
            <mxPoint x="339.5" y="530" as="targetPoint" />
            <Array as="points">
              <mxPoint x="185" y="530" />
            </Array>
          </mxGeometry>
        </mxCell>
        <mxCell id="lm7kt7B4Gzffc_qZvz0Z-23" value="Alternative" style="shape=umlFrame;whiteSpace=wrap;html=1;pointerEvents=0;" vertex="1" parent="1">
          <mxGeometry x="-430" y="545" width="790" height="145" as="geometry" />
        </mxCell>
        <mxCell id="lm7kt7B4Gzffc_qZvz0Z-24" value="Hợp lệ" style="html=1;verticalAlign=bottom;endArrow=open;dashed=1;endSize=8;curved=0;rounded=0;" edge="1" parent="1">
          <mxGeometry relative="1" as="geometry">
            <mxPoint x="339.5" y="570" as="sourcePoint" />
            <mxPoint x="119.63043478260875" y="570" as="targetPoint" />
          </mxGeometry>
        </mxCell>
        <mxCell id="lm7kt7B4Gzffc_qZvz0Z-25" value="Hợp lệ" style="html=1;verticalAlign=bottom;endArrow=open;dashed=1;endSize=8;curved=0;rounded=0;" edge="1" parent="1">
          <mxGeometry relative="1" as="geometry">
            <mxPoint x="119.87" y="583" as="sourcePoint" />
            <mxPoint x="-95" y="583" as="targetPoint" />
          </mxGeometry>
        </mxCell>
        <mxCell id="lm7kt7B4Gzffc_qZvz0Z-26" value="Hợp lệ" style="html=1;verticalAlign=bottom;endArrow=open;dashed=1;endSize=8;curved=0;rounded=0;" edge="1" parent="1" source="lm7kt7B4Gzffc_qZvz0Z-2">
          <mxGeometry relative="1" as="geometry">
            <mxPoint x="-130" y="600" as="sourcePoint" />
            <mxPoint x="-289.99956521739125" y="600" as="targetPoint" />
          </mxGeometry>
        </mxCell>
        <mxCell id="lm7kt7B4Gzffc_qZvz0Z-27" value="[Đưa ra doan thu&lt;div&gt;trong khoảng A -&amp;gt; B]&lt;/div&gt;" style="text;html=1;align=center;verticalAlign=middle;resizable=0;points=[];autosize=1;strokeColor=none;fillColor=none;" vertex="1" parent="1">
          <mxGeometry x="-430" y="574.5" width="130" height="40" as="geometry" />
        </mxCell>
        <mxCell id="lm7kt7B4Gzffc_qZvz0Z-28" value="" style="line;strokeWidth=1;fillColor=none;align=left;verticalAlign=middle;spacingTop=-1;spacingLeft=3;spacingRight=3;rotatable=0;labelPosition=right;points=[];portConstraint=eastwest;strokeColor=inherit;dashed=1;" vertex="1" parent="1">
          <mxGeometry x="-430" y="615" width="790" height="8" as="geometry" />
        </mxCell>
        <mxCell id="lm7kt7B4Gzffc_qZvz0Z-29" value="Không hợp lệ" style="html=1;verticalAlign=bottom;endArrow=open;dashed=1;endSize=8;curved=0;rounded=0;" edge="1" parent="1">
          <mxGeometry relative="1" as="geometry">
            <mxPoint x="339.87" y="639.7" as="sourcePoint" />
            <mxPoint x="120.00043478260875" y="639.7" as="targetPoint" />
          </mxGeometry>
        </mxCell>
        <mxCell id="lm7kt7B4Gzffc_qZvz0Z-30" value="Không hợp lệ" style="html=1;verticalAlign=bottom;endArrow=open;dashed=1;endSize=8;curved=0;rounded=0;" edge="1" parent="1" target="lm7kt7B4Gzffc_qZvz0Z-2">
          <mxGeometry relative="1" as="geometry">
            <mxPoint x="119.87" y="650" as="sourcePoint" />
            <mxPoint x="-90" y="650" as="targetPoint" />
          </mxGeometry>
        </mxCell>
        <mxCell id="lm7kt7B4Gzffc_qZvz0Z-31" value="Không hợp lệ" style="html=1;verticalAlign=bottom;endArrow=open;dashed=1;endSize=8;curved=0;rounded=0;" edge="1" parent="1">
          <mxGeometry relative="1" as="geometry">
            <mxPoint x="-105" y="660" as="sourcePoint" />
            <mxPoint x="-290" y="660" as="targetPoint" />
          </mxGeometry>
        </mxCell>
        <mxCell id="lm7kt7B4Gzffc_qZvz0Z-32" value="[Invalid]" style="text;html=1;align=center;verticalAlign=middle;resizable=0;points=[];autosize=1;strokeColor=none;fillColor=none;" vertex="1" parent="1">
          <mxGeometry x="-390" y="645" width="60" height="30" as="geometry" />
        </mxCell>
      </root>
    </mxGraphModel>
  </diagram>
</mxfile>
